#!OML:ASF F:\VICON\USERDATA\INSTALL\rory3\rory3.ASF
:FULLY-SPECIFIED
:DEGREES
559
root -0.453744 16.4646 -12.6207 22.0985 -20.6499 -2.36131
lowerback -11.5288 -0.262585 -0.149324
upperback -8.65256 -0.423321 1.06621
thorax -2.57625 -0.218454 1.15509
lowerneck -2.16008 5.82611 6.17042
upperneck 26.4304 7.22085 0.416161
head 8.83157 3.96764 -0.319942
rclavicle 7.90573e-014 2.03754e-015
rhumerus -16.7334 -27.9316 20.5808
rradius 15.9507
rwrist 35.2151
rhand 0.672518 -7.8273
rfingers 7.12502
rthumb 26.2344 -36.0339
lclavicle 7.90573e-014 2.03754e-015
lhumerus 11.3953 -39.6197 4.49004
lradius 24.6567
lwrist -40.8122
lhand -20.8796 13.8645
lfingers 7.12502
lthumb 5.49055 43.7734
rfemur -37.0335 -7.1449 20.5726
rtibia 60.811
rfoot -4.61038 5.01491
rtoes -26.1699
lfemur -46.5726 -2.44273 -23.1688
ltibia 42.7398
lfoot -51.6353 24.498
ltoes 38.7251
560
root -0.468989 16.4494 -12.5353 22.2613 -20.0927 -1.92402
lowerback -11.7529 -0.436115 -0.373367
upperback -8.69961 -0.635233 0.955891
thorax -2.50002 -0.318304 1.14559
lowerneck -2.35012 5.88651 6.15302
upperneck 26.6155 7.28305 0.473887
head 8.93069 4.00156 -0.282262
rclavicle -4.30633e-014 -2.93704e-014
rhumerus -16.9863 -25.9159 21.0962
rradius 15.8113
rwrist 33.7082
rhand 0.00539137 -7.2317
rfingers 7.12502
rthumb 25.5955 -35.5317
lclavicle -4.30633e-014 -2.93704e-014
lhumerus 10.5431 -39.5298 4.31406
lradius 24.3162
lwrist -39.6207
lhand -18.6916 15.3335
lfingers 7.12502
lthumb 7.60282 45.1768
rfemur -38.3618 -6.8737 20.0296
rtibia 61.0555
rfoot -6.68685 4.19042
rtoes -26.4296
lfemur -46.5751 -2.70628 -23.635
ltibia 42.6496
lfoot -51.4398 24.5491
ltoes 38.2292
561
root -0.482003 16.449 -12.4352 22.5004 -19.3649 -2.005
lowerback -11.8763 -0.517362 -0.00939392
upperback -8.74944 -0.773893 0.964634
thorax -2.48733 -0.40389 0.936587
lowerneck -2.53047 5.88028 6.23242
upperneck 26.7723 7.26211 0.448506
head 9.02343 3.99806 -0.296585
rclavicle -2.36864e-014 1.04859e-014
rhumerus -17.2065 -24.3683 21.6195
rradius 15.5858
rwrist 32.2133
rhand -0.314669 -6.99779
rfingers 7.12502
rthumb 25.2889 -35.3415
lclavicle -2.36864e-014 1.04859e-014
lhumerus 9.25144 -38.5433 4.73243
lradius 24.1619
lwrist -39.1402
lhand -19.1487 16.0006
lfingers 7.12502
lthumb 7.16162 45.8594
rfemur -39.3585 -6.48807 19.9861
rtibia 60.7795
rfoot -8.9841 3.09532
rtoes -28.2012
lfemur -46.2576 -2.68487 -23.7354
ltibia 42.674
lfoot -51.3396 23.1735
ltoes 38.4483
562
root -0.487413 16.4354 -12.3273 22.11 -18.2616 -1.86679
lowerback -11.4708 -0.677077 0.345992
upperback -8.64283 -1.00854 0.922162
thorax -2.59519 -0.536507 0.675174
lowerneck -2.5575 5.75758 6.06678
upperneck 26.7358 7.08645 0.545869
head 8.99768 3.91012 -0.252312
rclavicle 3.63659e-014 3.2551e-014
rhumerus -17.5508 -22.3918 22.1295
rradius 15.4501
rwrist 30.5431
rhand -0.507692 -7.23074
rfingers 7.12502
rthumb 25.104 -35.6005
lclavicle 3.63659e-014 3.2551e-014
lhumerus 7.61362 -36.1437 5.78323
lradius 24.1512
lwrist -40.0207
lhand -18.7258 16.346
lfingers 7.12502
lthumb 7.56987 46.1905
rfemur -39.6208 -6.33367 19.7202
rtibia 60.2378
rfoot -11.3852 1.56008
rtoes -29.6991
lfemur -45.8912 -3.92642 -23.4085
ltibia 42.556
lfoot -50.2618 26.3241
ltoes 35.6421
563
root -0.49208 16.4323 -12.224 22.1343 -17.4659 -1.8197
lowerback -11.5785 -0.747096 0.678797
upperback -8.54781 -1.12764 0.960917
thorax -2.44087 -0.608681 0.515083
lowerneck -2.51335 5.68276 5.66421
upperneck 26.5427 6.99607 0.704706
head 8.89303 3.84495 -0.145853
rclavicle 3.91194e-014 7.10655e-015
rhumerus -17.7642 -19.8493 22.3595
rradius 15.6614
rwrist 28.2188
rhand 0.433419 -8.3128
rfingers 7.12502
rthumb 26.0054 -36.5533
lclavicle 3.91194e-014 7.10655e-015
lhumerus 6.03126 -33.7133 6.82577
lradius 24.1515
lwrist -40.7434
lhand -18.4158 16.4696
lfingers 7.12502
lthumb 7.86905 46.3031
rfemur -40.2599 -6.01938 19.4195
rtibia 59.4264
rfoot -13.2139 0.0703337
rtoes -29.7098
lfemur -45.5384 -3.71698 -23.6903
ltibia 42.5895
lfoot -49.5306 25.5722
ltoes 35.8546
